{"title":"47 Ronin me ellinikous ypotitlous{greek subs} by paul","uid":9789726,"size":1693823062,"categoryP":"video","categoryS":"movies","magnet":"?xt=urn:btih:96bfdb89ac3495e1cd2615d7d834b259f3a0cf5c&amp;dn=47+Ronin+me+ellinikous+ypotitlous%7Bgreek+subs%7D+by+paul&amp;tr=udp%3A%2F%2Ftracker.openbittorrent.com%3A80&amp;tr=udp%3A%2F%2Fopen.demonii.com%3A1337&amp;tr=udp%3A%2F%2Ftracker.coppersurfer.tk%3A6969&amp;tr=udp%3A%2F%2Fexodus.desync.com%3A6969","seeders":1,"leechers":0,"uploader":"12os","files":-1,"time":1395187488,"description":"47 Ronin me ellinikous ypotitlous kai kaly analysi..\nOpoios thelei kanei seed kai sxolio an tou aresei to torrent..\n &lt;a href=&quot;\nhttp://www.imdb.com/title/tt1335975/&quot; rel=&quot;nofollow&quot; target=&quot;_NEW&quot;&gt;\nhttp://www.imdb.com/title/tt1335975/&lt;/a&gt;\n\n\n\n\nFormat                                   : AVI\nFormat/Info                              : Audio Video Interleave\nFormat profile                           : OpenDML\nFormat settings                          : rec\nFile size                                : 1.58 GiB\nDuration                                 : 1h 58mn\nOverall bit rate                         : 1 905 Kbps\nWriting application                      : AVI-Mux GUI 1.17.8.3, Feb 16 201019:42:50\n\nVideo\nID                                       : 0\nFormat                                   : MPEG-4 Visual\nFormat profile                           : Advanced Simple@L5\nFormat settings, BVOP                    : 2\nFormat settings, QPel                    : No\nFormat settings, GMC                     : No warppoints\nFormat settings, Matrix                  : Custom\nCodec ID                                 : XVID\nCodec ID/Hint                            : XviD\nDuration                                 : 1h 58mn\nBit rate                                 : 1 515 Kbps\nWidth                                    : 720 pixels\nHeight                                   : 304 pixels\nDisplay aspect ratio                     : 2.35:1\nFrame rate                               : 23.976 fps\nColor space                              : YUV\nChroma subsampling                       : 4:2:0\nBit depth                                : 8 bits\nScan type                                : Progressive\nCompression mode                         : Lossy\nBits/(Pixel*Frame)                       : 0.289\nStream size                              : 1.25 GiB (80%)\nWriting library                          : XviD 1.2.1 (UTC 2008-12-04)\n\nAudio\nID                                       : 1\nFormat                                   : AC-3\nFormat/Info                              : Audio Coding 3\nCodec ID                                 : 2000\nDuration                                 : 1h 58mn\nBit rate mode                            : Constant\nBit rate                                 : 384 Kbps\nChannel(s)                               : 6 channels\nSampling rate                            : 48.0 KHz\nCompression mode                         : Lossy\nStream size                              : 326 MiB (20%)\nAlignment                                : Aligned on interleaves\nTitle                                    : Fookin Audio\n\n","torrent":{"xt":"urn:btih:96bfdb89ac3495e1cd2615d7d834b259f3a0cf5c","amp;dn":"47+Ronin+me+ellinikous+ypotitlous%7Bgreek+subs%7D+by+paul","amp;tr":["udp%3A%2F%2Ftracker.openbittorrent.com%3A80","udp%3A%2F%2Fopen.demonii.com%3A1337","udp%3A%2F%2Ftracker.coppersurfer.tk%3A6969","udp%3A%2F%2Fexodus.desync.com%3A6969"],"infoHash":"96bfdb89ac3495e1cd2615d7d834b259f3a0cf5c","infoHashBuffer":{"type":"Buffer","data":[150,191,219,137,172,52,149,225,205,38,21,215,216,52,178,89,243,160,207,92]},"announce":[],"urlList":[]}}